<svg width="20" height="22" viewBox="0 0 20 22" fill="none" xmlns="http://www.w3.org/2000/svg">
<g id="library_books_black_24dp 3">
<path id="Vector" d="M2.70332 5.96509C2.25526 5.96509 1.88867 6.34615 1.88867 6.81189V17.8203C1.88867 18.7518 2.62185 19.5139 3.51796 19.5139H14.1083C14.5564 19.5139 14.923 19.1329 14.923 18.6671C14.923 18.2014 14.5564 17.8203 14.1083 17.8203H4.3326C3.88455 17.8203 3.51796 17.4393 3.51796 16.9735V6.81189C3.51796 6.34615 3.15137 5.96509 2.70332 5.96509ZM16.5523 2.57788H6.77654C5.88043 2.57788 5.14725 3.34 5.14725 4.27149V14.4331C5.14725 15.3646 5.88043 16.1267 6.77654 16.1267H16.5523C17.4484 16.1267 18.1816 15.3646 18.1816 14.4331V4.27149C18.1816 3.34 17.4484 2.57788 16.5523 2.57788ZM14.923 10.1991H8.40583C7.95777 10.1991 7.59118 9.81805 7.59118 9.3523C7.59118 8.88656 7.95777 8.5055 8.40583 8.5055H14.923C15.371 8.5055 15.7376 8.88656 15.7376 9.3523C15.7376 9.81805 15.371 10.1991 14.923 10.1991ZM11.6644 13.5863H8.40583C7.95777 13.5863 7.59118 13.2053 7.59118 12.7395C7.59118 12.2738 7.95777 11.8927 8.40583 11.8927H11.6644C12.1125 11.8927 12.479 12.2738 12.479 12.7395C12.479 13.2053 12.1125 13.5863 11.6644 13.5863ZM14.923 6.81189H8.40583C7.95777 6.81189 7.59118 6.43083 7.59118 5.96509C7.59118 5.49935 7.95777 5.11829 8.40583 5.11829H14.923C15.371 5.11829 15.7376 5.49935 15.7376 5.96509C15.7376 6.43083 15.371 6.81189 14.923 6.81189Z" fill="white"/>
</g>
</svg>
